<svg width="24" height="25" viewBox="0 0 24 25" fill="none" xmlns="http://www.w3.org/2000/svg">
<g id="file-plus">
<g id="path">
<path d="M12 11.5C12.5523 11.5 13 11.9477 13 12.5V14.5H15C15.5523 14.5 16 14.9477 16 15.5C16 16.0523 15.5523 16.5 15 16.5H13V18.5C13 19.0523 12.5523 19.5 12 19.5C11.4477 19.5 11 19.0523 11 18.5V16.5H9C8.44772 16.5 8 16.0523 8 15.5C8 14.9477 8.44772 14.5 9 14.5H11V12.5C11 11.9477 11.4477 11.5 12 11.5Z" fill="#434446"/>
<path fill-rule="evenodd" clip-rule="evenodd" d="M6 1.5C4.34315 1.5 3 2.84315 3 4.5V20.5C3 22.1569 4.34315 23.5 6 23.5H18C19.6569 23.5 21 22.1569 21 20.5V8.5C21 8.23478 20.8946 7.98043 20.7071 7.79289L14.7071 1.79289C14.5196 1.60536 14.2652 1.5 14 1.5H6ZM5 4.5C5 3.94772 5.44772 3.5 6 3.5H13V8.5C13 9.05228 13.4477 9.5 14 9.5H19V20.5C19 21.0523 18.5523 21.5 18 21.5H6C5.44772 21.5 5 21.0523 5 20.5V4.5ZM17.5858 7.5L15 4.91421V7.5H17.5858Z" fill="#434446"/>
</g>
</g>
</svg>
