<svg width="24" height="24" viewBox="0 0 34 34" fill="none" xmlns="http://www.w3.org/2000/svg">
<path fill-rule="evenodd" clip-rule="evenodd" d="M33.32 17.3865C33.32 16.181 33.2118 15.0219 33.0109 13.9092H17V20.4851H26.1491C25.755 22.6101 24.5573 24.4106 22.7568 25.616V29.8815H28.2509C31.4654 26.9219 33.32 22.5637 33.32 17.3865Z" fill="#4285F4"/>
<path fill-rule="evenodd" clip-rule="evenodd" d="M17 34.0001C21.59 34.0001 25.4382 32.4778 28.2509 29.8814L22.7568 25.616C21.2345 26.636 19.2873 27.2387 17 27.2387C12.5722 27.2387 8.82451 24.2482 7.48769 20.23H1.80814V24.6346C4.60541 30.1905 10.3545 34.0001 17 34.0001Z" fill="#34A853"/>
<path fill-rule="evenodd" clip-rule="evenodd" d="M7.48768 20.2301C7.14768 19.2101 6.9545 18.1206 6.9545 17.0001C6.9545 15.8796 7.14768 14.7901 7.48768 13.7701V9.36554H1.80812C0.656758 11.6605 -6.10352e-05 14.2569 -6.10352e-05 17.0001C-6.10352e-05 19.7433 0.656758 22.3397 1.80812 24.6347L7.48768 20.2301Z" fill="#FBBC05"/>
<path fill-rule="evenodd" clip-rule="evenodd" d="M17 6.76144C19.4959 6.76144 21.7368 7.61916 23.4986 9.30371L28.3745 4.4278C25.4304 1.68461 21.5823 6.10352e-05 17 6.10352e-05C10.3545 6.10352e-05 4.60541 3.80961 1.80814 9.36553L7.48769 13.7701C8.82451 9.75189 12.5722 6.76144 17 6.76144Z" fill="#EA4335"/>
</svg>
