<svg width="32" height="24" viewBox="0 0 42 28" fill="none" xmlns="http://www.w3.org/2000/svg">
<path d="M21.5701 5.9317C18.2202 1.6664 15.419 0.0410156 12.0663 0.0410156C5.23113 0.0410156 -0.00585938 8.93624 -0.00585938 18.3513C-0.00585938 24.2431 2.84442 27.959 7.61867 27.959C11.0548 27.959 13.5261 26.3392 17.9193 18.6595C17.9193 18.6595 19.7507 15.4255 21.0106 13.1976C21.452 13.9104 21.916 14.6773 22.4054 15.5017L24.4658 18.9674C28.4787 25.6831 30.7149 27.959 34.7664 27.959C39.4175 27.959 42.0058 24.1923 42.0058 18.1782C42.0058 8.32009 36.6508 0.0410156 30.1454 0.0410156C26.7006 0.0410156 24.0079 2.63571 21.5701 5.9317ZM28.0125 15.8772L25.5493 11.7691C24.8829 10.685 24.2441 9.68862 23.6277 8.77543C25.8474 5.34878 27.6788 3.64159 29.8567 3.64159C34.3814 3.64159 38.0012 10.3034 38.0012 18.4861C38.0012 21.6051 36.9794 23.415 34.8627 23.415C32.8339 23.415 31.8646 22.0753 28.0125 15.8772ZM4.53793 18.4283C4.53793 11.5932 7.94587 4.6042 12.0085 4.6042C14.2084 4.6042 16.0468 5.87475 18.8629 9.90611C16.1889 14.0075 14.5691 16.5799 14.5691 16.5799C11.0074 22.1635 9.77506 23.415 7.79205 23.415C5.75096 23.415 4.53793 21.6233 4.53793 18.4283Z" fill="#1080F8"/>
</svg>
