<svg width="32" height="32" viewBox="0 0 48 48" fill="none" xmlns="http://www.w3.org/2000/svg">
<path d="M30.2227 5.77045C30.3737 7.74246 29.7501 9.69567 28.4842 11.2153C27.8781 11.9692 27.1088 12.5757 26.2342 12.9892C25.3597 13.4027 24.4027 13.6124 23.4354 13.6024C23.3737 12.6541 23.4995 11.7029 23.8056 10.8033C24.1117 9.90358 24.5921 9.07306 25.2194 8.35918C26.5024 6.89787 28.2888 5.97357 30.2227 5.77045Z" fill="#434446"/>
<path d="M33.7505 20.1232C33.1078 21.2556 32.762 22.5322 32.7452 23.8341C32.7467 25.2986 33.1794 26.7302 33.9891 27.9505C34.7989 29.1708 35.9499 30.1257 37.2987 30.6961C36.7684 32.4189 35.9691 34.0469 34.9302 35.52C33.5351 37.6069 32.0724 39.6457 29.7507 39.6834C28.6466 39.7089 27.9012 39.3914 27.1246 39.0605C26.3145 38.7155 25.4703 38.3558 24.1493 38.3558C22.7484 38.3558 21.8664 38.727 21.0158 39.085C20.2807 39.3944 19.569 39.6939 18.566 39.7355C16.355 39.8174 14.6653 37.5081 13.2195 35.4408C10.3297 31.2188 8.07954 23.5428 11.0962 18.3198C11.7926 17.0683 12.8013 16.0186 14.0241 15.2729C15.2468 14.5272 16.6418 14.111 18.0733 14.0647C19.3273 14.0389 20.5305 14.5222 21.5855 14.946C22.3923 15.27 23.1123 15.5593 23.702 15.5593C24.2203 15.5593 24.9202 15.2815 25.736 14.9577C27.021 14.4477 28.5932 13.8237 30.1955 13.9919C31.4234 14.0303 32.6254 14.3545 33.7061 14.9388C34.7868 15.523 35.7164 16.3512 36.4211 17.3575C35.3119 18.0394 34.3932 18.9909 33.7505 20.1232Z" fill="#434446"/>
</svg>
