<svg width="24" height="24" viewBox="0 0 24 24" fill="none" xmlns="http://www.w3.org/2000/svg">
<path d="M2.62804 7.09894C2.80061 7.00027 3.0053 6.97416 3.19713 7.02633C3.38895 7.07851 3.55221 7.2047 3.65104 7.37719L3.65479 7.38394L3.67579 7.41844C3.82645 7.6581 3.98786 7.89084 4.15954 8.11594C4.63028 8.73209 5.16114 9.29988 5.74429 9.81094C7.15279 11.0424 9.23329 12.2499 12 12.2499C14.766 12.2499 16.8473 11.0432 18.2558 9.81019C18.8392 9.29917 19.3703 8.73137 19.8413 8.11519C20.0127 7.89033 20.1739 7.65784 20.3243 7.41844L20.3453 7.38394L20.349 7.37794V7.37644C20.4479 7.20378 20.6113 7.07747 20.8033 7.02529C20.9953 6.97311 21.2001 6.99933 21.3728 7.09819C21.5454 7.19705 21.6718 7.36045 21.7239 7.55244C21.7761 7.74443 21.7499 7.94928 21.651 8.12194V8.12344L21.6495 8.12494L21.6465 8.13019L21.6375 8.14594C21.5901 8.2275 21.5401 8.30754 21.4875 8.38594C21.3848 8.54344 21.234 8.76244 21.0338 9.02494C20.5021 9.72105 19.9024 10.3625 19.2435 10.9397C17.6528 12.3317 15.234 13.7499 12 13.7499C8.76604 13.7499 6.34729 12.3317 4.75579 10.9397C4.0972 10.3624 3.49775 9.72101 2.96629 9.02494C2.76321 8.75887 2.57251 8.48357 2.39479 8.19994C2.38391 8.18201 2.37316 8.16401 2.36254 8.14594L2.35354 8.13094L2.35054 8.12494L2.34979 8.12344V8.12269C2.30085 8.03716 2.26849 7.94282 2.25602 7.84507C2.24356 7.74732 2.25048 7.64807 2.27639 7.553C2.3023 7.45792 2.34669 7.36889 2.40703 7.29098C2.46737 7.21307 2.54247 7.14781 2.62804 7.09894ZM5.03029 13.5302L3.53029 15.0302C3.38883 15.1668 3.19938 15.2424 3.00274 15.2407C2.80609 15.239 2.61798 15.1601 2.47892 15.0211C2.33987 14.882 2.26099 14.6939 2.25928 14.4972C2.25757 14.3006 2.33317 14.1111 2.46979 13.9697L3.96979 12.4697C4.11124 12.3331 4.30069 12.2575 4.49734 12.2592C4.69399 12.2609 4.88209 12.3398 5.02115 12.4788C5.16021 12.6179 5.23908 12.806 5.24079 13.0026C5.2425 13.1993 5.1669 13.3887 5.03029 13.5302ZM20.4698 15.0302L18.9698 13.5302C18.8332 13.3887 18.7576 13.1993 18.7593 13.0026C18.761 12.806 18.8399 12.6179 18.9789 12.4788C19.118 12.3398 19.3061 12.2609 19.5027 12.2592C19.6994 12.2575 19.8888 12.3331 20.0303 12.4697L21.5303 13.9697C21.6669 14.1111 21.7425 14.3006 21.7408 14.4972C21.7391 14.6939 21.6602 14.882 21.5212 15.0211C21.3821 15.1601 21.194 15.239 20.9973 15.2407C20.8007 15.2424 20.6112 15.1668 20.4698 15.0302ZM7.82104 17.0282C7.7427 17.2062 7.5983 17.3468 7.41829 17.4203C7.23828 17.4939 7.03673 17.4947 6.85617 17.4225C6.6756 17.3503 6.53013 17.2108 6.45044 17.0334C6.37076 16.856 6.36308 16.6546 6.42904 16.4717L7.17904 14.5967C7.21318 14.502 7.26603 14.4151 7.33444 14.3413C7.40285 14.2675 7.48542 14.2082 7.57724 14.1669C7.66906 14.1257 7.76824 14.1033 7.86887 14.1012C7.9695 14.0991 8.06953 14.1173 8.16299 14.1547C8.25646 14.192 8.34144 14.2478 8.41289 14.3187C8.48433 14.3896 8.54077 14.4742 8.57885 14.5674C8.61692 14.6605 8.63586 14.7604 8.63451 14.8611C8.63317 14.9617 8.61158 15.0611 8.57104 15.1532L7.82104 17.0282ZM17.1533 17.4459C17.0618 17.4825 16.9641 17.5008 16.8656 17.4996C16.7671 17.4984 16.6698 17.4778 16.5793 17.439C16.4887 17.4002 16.4067 17.344 16.3379 17.2735C16.2691 17.203 16.2149 17.1196 16.1783 17.0282L15.4283 15.1532C15.3581 14.9692 15.3631 14.7651 15.4421 14.5848C15.5212 14.4045 15.6679 14.2625 15.8507 14.1894C16.0336 14.1164 16.2378 14.1181 16.4193 14.1943C16.6008 14.2705 16.7451 14.415 16.821 14.5967L17.571 16.4717C17.6076 16.5631 17.6259 16.6609 17.6247 16.7594C17.6235 16.8579 17.6029 16.9552 17.5641 17.0457C17.5253 17.1363 17.4691 17.2183 17.3986 17.2871C17.3281 17.3559 17.2447 17.4101 17.1533 17.4467V17.4459ZM12.75 17.4999C12.75 17.6988 12.671 17.8896 12.5304 18.0303C12.3897 18.1709 12.1989 18.2499 12 18.2499C11.8011 18.2499 11.6104 18.1709 11.4697 18.0303C11.3291 17.8896 11.25 17.6988 11.25 17.4999V15.6249C11.25 15.426 11.3291 15.2353 11.4697 15.0946C11.6104 14.954 11.8011 14.8749 12 14.8749C12.1989 14.8749 12.3897 14.954 12.5304 15.0946C12.671 15.2353 12.75 15.426 12.75 15.6249V17.4999Z" fill="#8A8A8A"/>
</svg>
