<svg width="24" height="24" viewBox="0 0 24 24" fill="none" xmlns="http://www.w3.org/2000/svg">
<path d="M2.62804 14.1501C2.80061 14.2488 3.0053 14.2749 3.19713 14.2227C3.38895 14.1705 3.55221 14.0443 3.65104 13.8718L3.65479 13.8651L3.67579 13.8306C3.82645 13.5909 3.98786 13.3582 4.15954 13.1331C4.63028 12.5169 5.16114 11.9491 5.74429 11.4381C7.15279 10.2066 9.23329 8.99909 12 8.99909C14.766 8.99909 16.8473 10.2058 18.2558 11.4388C18.8392 11.9499 19.3703 12.5177 19.8413 13.1338C20.0127 13.3587 20.1739 13.5912 20.3243 13.8306L20.3453 13.8651L20.349 13.8711V13.8726C20.4479 14.0452 20.6113 14.1716 20.8033 14.2237C20.9953 14.2759 21.2001 14.2497 21.3728 14.1508C21.5454 14.052 21.6718 13.8886 21.7239 13.6966C21.7761 13.5046 21.7499 13.2997 21.651 13.1271V13.1256L21.6495 13.1241L21.6465 13.1188L21.6375 13.1031C21.5901 13.0215 21.5401 12.9415 21.4875 12.8631C21.3848 12.7056 21.234 12.4866 21.0338 12.2241C20.5021 11.528 19.9024 10.8866 19.2435 10.3093C17.6528 8.91734 15.234 7.49909 12 7.49909C8.76604 7.49909 6.34729 8.91734 4.75579 10.3093C4.0972 10.8866 3.49775 11.528 2.96629 12.2241C2.76321 12.4902 2.57251 12.7654 2.39479 13.0491C2.38391 13.067 2.37316 13.085 2.36254 13.1031L2.35354 13.1181L2.35054 13.1241L2.34979 13.1256V13.1263C2.30085 13.2119 2.26849 13.3062 2.25602 13.404C2.24356 13.5017 2.25048 13.601 2.27639 13.696C2.3023 13.7911 2.34669 13.8801 2.40703 13.958C2.46737 14.036 2.54247 14.1012 2.62804 14.1501ZM5.03029 7.71884L3.53029 6.21884C3.38883 6.08222 3.19938 6.00662 3.00274 6.00833C2.80609 6.01004 2.61798 6.08892 2.47892 6.22797C2.33987 6.36703 2.26099 6.55514 2.25928 6.75179C2.25757 6.94843 2.33317 7.13789 2.46979 7.27934L3.96979 8.77934C4.11124 8.91596 4.30069 8.99155 4.49734 8.98984C4.69399 8.98813 4.88209 8.90926 5.02115 8.7702C5.16021 8.63114 5.23908 8.44303 5.24079 8.24639C5.2425 8.04974 5.1669 7.86029 5.03029 7.71884ZM20.4698 6.21884L18.9698 7.71884C18.8332 7.86029 18.7576 8.04974 18.7593 8.24639C18.761 8.44303 18.8399 8.63114 18.9789 8.7702C19.118 8.90926 19.3061 8.98813 19.5027 8.98984C19.6994 8.99155 19.8888 8.91596 20.0303 8.77934L21.5303 7.27934C21.6669 7.13789 21.7425 6.94843 21.7408 6.75179C21.7391 6.55514 21.6602 6.36703 21.5212 6.22797C21.3821 6.08892 21.194 6.01004 20.9973 6.00833C20.8007 6.00662 20.6112 6.08222 20.4698 6.21884ZM7.82104 4.22084C7.7427 4.04285 7.5983 3.90225 7.41829 3.82869C7.23828 3.75513 7.03673 3.75436 6.85617 3.82655C6.6756 3.89874 6.53013 4.03823 6.45044 4.21562C6.37076 4.393 6.36308 4.5944 6.42904 4.77734L7.17904 6.65234C7.21318 6.74703 7.26603 6.83387 7.33444 6.90771C7.40285 6.98154 7.48542 7.04085 7.57724 7.08209C7.66906 7.12334 7.76824 7.14568 7.86887 7.14779C7.9695 7.1499 8.06953 7.13173 8.16299 7.09437C8.25646 7.057 8.34144 7.00121 8.41289 6.9303C8.48433 6.8594 8.54077 6.77484 8.57885 6.68167C8.61692 6.58849 8.63586 6.4886 8.63451 6.38796C8.63317 6.28731 8.61158 6.18796 8.57104 6.09584L7.82104 4.22084ZM17.1533 3.80309C17.0618 3.76649 16.9641 3.74827 16.8656 3.74946C16.7671 3.75064 16.6698 3.77122 16.5793 3.81001C16.4887 3.84881 16.4067 3.90506 16.3379 3.97554C16.2691 4.04603 16.2149 4.12938 16.1783 4.22084L15.4283 6.09584C15.3581 6.27978 15.3631 6.48394 15.4421 6.66425C15.5212 6.84456 15.6679 6.98656 15.8507 7.05961C16.0336 7.13266 16.2378 7.13089 16.4193 7.0547C16.6008 6.9785 16.7451 6.83398 16.821 6.65234L17.571 4.77734C17.6076 4.68589 17.6259 4.58813 17.6247 4.48963C17.6235 4.39114 17.6029 4.29385 17.5641 4.20331C17.5253 4.11277 17.4691 4.03076 17.3986 3.96196C17.3281 3.89316 17.2447 3.83892 17.1533 3.80234V3.80309ZM12.75 3.74909C12.75 3.55017 12.671 3.35941 12.5304 3.21876C12.3897 3.0781 12.1989 2.99909 12 2.99909C11.8011 2.99909 11.6104 3.0781 11.4697 3.21876C11.3291 3.35941 11.25 3.55017 11.25 3.74909V5.62409C11.25 5.823 11.3291 6.01377 11.4697 6.15442C11.6104 6.29507 11.8011 6.37409 12 6.37409C12.1989 6.37409 12.3897 6.29507 12.5304 6.15442C12.671 6.01377 12.75 5.823 12.75 5.62409V3.74909Z" fill="#8A8A8A"/>
<circle cx="12" cy="14" r="3" fill="#8A8A8A"/>
</svg>
