<svg width="25" height="24" viewBox="0 0 25 24" fill="none" xmlns="http://www.w3.org/2000/svg">
<g id="vuesax/bold/tick-circle">
<g id="tick-circle">
<path id="Vector" d="M12.6666 2C7.15663 2 2.66663 6.49 2.66663 12C2.66663 17.51 7.15663 22 12.6666 22C18.1766 22 22.6666 17.51 22.6666 12C22.6666 6.49 18.1766 2 12.6666 2ZM17.4466 9.7L11.7766 15.37C11.6366 15.51 11.4466 15.59 11.2466 15.59C11.0466 15.59 10.8566 15.51 10.7166 15.37L7.88663 12.54C7.59663 12.25 7.59663 11.77 7.88663 11.48C8.17663 11.19 8.65663 11.19 8.94663 11.48L11.2466 13.78L16.3866 8.64C16.6766 8.35 17.1566 8.35 17.4466 8.64C17.7366 8.93 17.7366 9.4 17.4466 9.7Z" fill="#009238"/>
</g>
</g>
</svg>
